<?xml version="1.0" standalone="no"?>
<!DOCTYPE svg PUBLIC "-//W3C//DTD SVG 1.1//EN" "http://www.w3.org/Graphics/SVG/1.1/DTD/svg11.dtd" >
<svg xmlns="http://www.w3.org/2000/svg">
<metadata>Generated by IcoMoon</metadata>
<defs>
<font id="icomoon" horiz-adv-x="1024">
<font-face units-per-em="1024" ascent="960" descent="-64" />
<missing-glyph horiz-adv-x="1024" />
<glyph unicode="&#x20;" horiz-adv-x="512" d="" />
<glyph unicode="&#xe900;" glyph-name="ask" d="M512 764.416c-201.728 0-365.312-128-365.312-286.72 1.887-78.758 39.060-148.466 96.256-194.165l0.512-0.395c-2.048-50.176-13.056-116.736-49.152-151.552 69.888 0 141.312 45.824 183.552 79.104 39.926-12.83 85.857-20.225 133.515-20.225 0.311 0 0.622 0 0.933 0.001h-0.049c201.472 0 365.056 128 365.056 287.232s-163.584 286.72-365.312 286.72z" />
<glyph unicode="&#xe901;" glyph-name="back-to-top" d="M552.448 693.76l352.512-399.36c10.341-12.403 16.619-28.508 16.619-46.080s-6.278-33.677-16.713-46.196l0.094 0.116c-9.788-11.684-24.385-19.061-40.704-19.061s-30.916 7.377-40.637 18.978l-0.067 0.083-311.552 353.536-311.808-353.792c-9.456-12.102-24.052-19.809-40.448-19.809s-30.992 7.707-40.363 19.696l-0.085 0.113c-10.575 12.312-17.013 28.444-17.013 46.080s6.438 33.768 17.092 46.174l-0.079-0.094 352.256 399.616c9.773 11.592 24.226 18.971 40.409 19.2h0.039c16.245-0.118 30.736-7.527 40.378-19.114l0.070-0.086z" />
<glyph unicode="&#xe902;" glyph-name="close" d="M858.368 673.024l-225.024-225.024 225.024-225.024c13.516-15.093 21.779-35.135 21.779-57.107 0-47.364-38.396-85.76-85.76-85.76-21.972 0-42.014 8.263-57.189 21.851l0.082-0.072-225.28 225.024-225.024-225.28c-15.695-16.777-37.968-27.232-62.684-27.232-47.364 0-85.76 38.396-85.76 85.76 0 24.652 10.401 46.874 27.054 62.518l0.045 0.042 225.28 225.28-225.28 225.024c-14.371 15.298-23.2 35.948-23.2 58.66 0 47.364 38.396 85.76 85.76 85.76 22.649 0 43.247-8.78 58.577-23.121l-0.048 0.045 225.28-225.28 225.024 225.024c15.686 16.698 37.908 27.1 62.56 27.1 47.364 0 85.76-38.396 85.76-85.76 0-24.715-10.455-46.989-27.183-62.639l-0.048-0.045z" />
<glyph unicode="&#xe903;" glyph-name="dropdown" d="M861.696 440.064c-12.156 12.251-29 19.835-47.616 19.835s-35.46-7.584-47.612-19.83l-186.884-186.884v551.68c0 37.326-30.258 67.584-67.584 67.584s-67.584-30.258-67.584-67.584v0-551.424l-186.88 186.88c-12.417 14.338-30.647 23.354-50.984 23.354-37.184 0-67.328-30.144-67.328-67.328 0-20.209 8.904-38.338 23.002-50.679l0.078-0.067 301.824-302.336c12.281-12.082 29.141-19.541 47.744-19.541s35.463 7.459 47.753 19.55l302.071 302.327c12.251 12.156 19.835 29 19.835 47.616s-7.584 35.46-19.83 47.612l-0.004 0.004z" />
<glyph unicode="&#xe904;" glyph-name="email" d="M222.464 556.032l81.92-56.832 105.216-73.216 16.896-12.288 21.504-15.104c5.632-3.84 12.544-8.192 20.736-13.056 6.592-4.049 14.201-7.68 22.195-10.493l0.845-0.259c6.011-2.177 12.949-3.482 20.178-3.583l0.046-0.001c7.192 0.132 14.037 1.434 20.413 3.723l-0.445-0.139c8.845 3.091 16.453 6.721 23.582 11.059l-0.542-0.307c8.192 4.864 15.104 9.216 20.736 13.056l21.504 15.104 16.896 12.288 187.136 130.048c19.303 13.447 35.535 29.761 48.481 48.516l0.415 0.636c12.301 16.741 19.826 37.662 20.223 60.322l0.001 0.094c-0.287 35.23-28.77 63.713-63.973 64h-588.827c-0.976 0.060-2.117 0.093-3.265 0.093-17.716 0-33.547-8.070-44.018-20.733l-0.077-0.096c-10.398-13.442-16.667-30.536-16.667-49.095 0-0.74 0.010-1.478 0.030-2.213l-0.002 0.108c1.021-21.523 9.173-40.964 22.126-56.197l-0.11 0.133c13.119-17.961 28.613-33.211 46.226-45.663l0.622-0.417zM830.464 513.28q-131.072-88.832-199.168-137.984-22.784-16.896-37.12-25.6c-10.825-6.962-23.296-13.408-36.372-18.662l-1.516-0.538c-12.972-6.123-28.118-9.932-44.091-10.491l-0.197-0.005c-16 0.33-31.088 3.878-44.759 10.020l0.727-0.292c-14.597 5.803-27.066 12.248-38.799 19.744l0.911-0.544q-14.080 9.472-36.864 25.6-54.016 39.68-198.912 137.984c-15.417 10.422-28.778 22.157-40.515 35.367l-0.189 0.217v-317.696c0.145-35.288 28.712-63.855 63.986-64h588.814c35.288 0.145 63.855 28.712 64 63.986v317.71c-11.781-13.027-24.877-24.497-39.185-34.329l-0.751-0.487z" />
<glyph unicode="&#xe905;" glyph-name="facebook-black" d="M885.504 851.2h-747.008c-0.076 0.001-0.166 0.001-0.256 0.001-16.259 0-29.44-13.181-29.44-29.44 0 0 0-0.001 0-0.001v0-747.52c0-16.259 13.181-29.44 29.44-29.44v0h146.688v312.576c0 10.604-8.596 19.2-19.2 19.2v0h-30.208c-10.505 0.129-18.971 8.675-18.971 19.199 0 0.361 0.010 0.719 0.030 1.075l-0.002-0.049v76.8c0 10.604 8.596 19.2 19.2 19.2v0h30.208c10.604 0 19.2 8.596 19.2 19.2v0 47.872c-0.268 3.453-0.421 7.477-0.421 11.537 0 37.737 13.191 72.394 35.214 99.609l-0.234-0.298q34.56 37.632 113.92 37.632h72.192c10.604 0 19.2-8.596 19.2-19.2v0-76.8c0-10.604-8.596-19.2-19.2-19.2v0h-38.144c-0.994 0.037-2.161 0.058-3.334 0.058-7.901 0-15.578-0.954-22.924-2.754l0.658 0.136c-5.716-1.334-10.469-4.751-13.517-9.389l-0.051-0.083c-2.554-3.957-4.432-8.605-5.341-13.591l-0.035-0.233c-0.248-2.989-0.39-6.47-0.39-9.984s0.142-6.995 0.419-10.437l-0.029 0.453v-38.144c0-10.604 8.596-19.2 19.2-19.2v0h65.28c0.113 0.003 0.247 0.004 0.381 0.004 9.331 0 16.896-7.565 16.896-16.896 0-0.723-0.045-1.436-0.134-2.136l0.009 0.083-8.192-76.8c-1.426-10.634-10.361-18.774-21.231-18.944h-54.033c-10.604 0-19.2-8.596-19.2-19.2v0-311.296h463.36c16.259 0 29.44 13.181 29.44 29.44v0 747.52c0 16.259-13.181 29.44-29.44 29.44v0z" />
<glyph unicode="&#xe906;" glyph-name="facebook-white" d="M400.384 706.304v-115.968h-85.248v-142.336h84.992v-421.632h174.848v421.632h116.224s11.008 68.096 16.384 142.592h-131.84v97.28c3.396 18.847 19.23 33.104 38.561 34.044l0.095 0.004h95.232v147.712h-130.304c-183.296 0-179.2-142.080-179.2-163.328z" />
<glyph unicode="&#xe907;" d="M469.504 448c0-0.152 0.001-0.332 0.001-0.512 0-94.304-76.448-170.752-170.752-170.752s-170.752 76.448-170.752 170.752c0 94.303 76.448 170.751 170.751 170.752v0c0.076 0 0.166 0 0.256 0 94.072 0 170.35-76.188 170.496-170.226v-0.014z" />
<glyph unicode="&#xe908;" d="M896 448c0-0.152 0.001-0.332 0.001-0.512 0-94.304-76.448-170.752-170.752-170.752s-170.752 76.448-170.752 170.752c0 94.303 76.448 170.751 170.751 170.752v0c0.076 0 0.166 0 0.256 0 94.072 0 170.35-76.188 170.496-170.226v-0.014z" />
<glyph unicode="&#xe909;" glyph-name="google-plus" d="M627.968 843.008h-188.416c-5.19 0.341-11.251 0.536-17.358 0.536-67.387 0-129.245-23.67-177.714-63.148l0.513 0.405c-39.259-33.392-64.398-82.363-65.787-137.236l-0.005-0.236c0.326-89.532 72.981-161.986 162.559-161.986 2.792 0 5.567 0.070 8.324 0.209l-0.387-0.016c10.752 0 22.528 0 32.768 2.048l-1.536-3.584c-5.312-10.607-8.504-23.084-8.703-36.286l-0.001-0.066c0.947-26.476 11.804-50.245 28.95-67.863l-0.022 0.023 1.792-2.304h-3.072c-45.824-3.072-130.816-8.96-193.28-47.104-45.807-24.586-76.83-71.453-78.586-125.717l-0.006-0.235c0-73.216 68.352-147.456 220.928-147.456 177.408 0 270.336 97.792 270.336 194.56 0 71.424-41.984 106.752-86.528 144.384l-37.376 30.464c-14.698 9.478-24.553 25.374-25.593 43.629l-0.007 0.147c1.961 20.007 12.095 37.319 26.972 48.775l0.164 0.121 1.28 1.28c40.448 32 86.528 68.096 86.528 146.432-0.85 56.919-29.132 107.058-72.183 137.886l-0.521 0.354h64.512l53.76 33.792c1.050 0.752 1.726 1.967 1.726 3.341 0 2.149-1.655 3.911-3.759 4.082l-0.015 0.001zM399.36 96.256c-108.288 0-180.992 51.2-180.992 125.696 0 49.152 29.696 84.736 88.32 105.984 32.158 10.106 69.255 16.479 107.66 17.649l0.628 0.015c3.524 0.27 7.632 0.424 11.776 0.424s8.252-0.154 12.319-0.456l-0.543 0.032c76.8-54.016 112.128-82.176 112.128-136.192 0-68.608-57.856-111.36-151.296-111.36zM399.36 510.464c-90.88 0-128 119.296-128 183.296-0.152 2.23-0.238 4.833-0.238 7.456 0 26.097 8.545 50.198 22.989 69.658l-0.223-0.314c17.367 20.619 43.089 33.721 71.88 34.048h0.056c83.456 0 129.536-112.128 129.536-189.44 0.112-1.818 0.175-3.943 0.175-6.083 0-26.516-9.761-50.751-25.885-69.31l0.11 0.13c-18.229-17.324-42.721-28.208-69.748-28.925l-0.14-0.003zM891.904 473.6h-98.304v99.328c-0.414 1.859-2.048 3.227-4.003 3.227-0.398 0-0.782-0.057-1.146-0.163l0.029 0.007h-42.752c-2.262 0-4.096-1.834-4.096-4.096v0-98.304h-98.56c-2.262 0-4.096-1.834-4.096-4.096v0-43.264c0-2.262 1.834-4.096 4.096-4.096h99.328v-99.584c0-2.262 1.834-4.096 4.096-4.096v0h41.984c2.262 0 4.096 1.834 4.096 4.096v0 99.84h99.328c2.262 0 4.096 1.834 4.096 4.096v43.52c0 2.262-1.834 4.096-4.096 4.096v0z" />
<glyph unicode="&#xe90a;" glyph-name="home2" d="M910.592 484.864l-124.928 124.928v145.408c-1.868 24.615-22.3 43.88-47.232 43.88s-45.364-19.265-47.222-43.721l-0.010-0.16v-51.2l-93.184 93.44c-22.303 21.368-52.623 34.524-86.016 34.524s-63.713-13.155-86.061-34.566l0.045 0.042-312.576-312.576c-11.72-8.722-19.229-22.534-19.229-38.1 0-26.156 21.204-47.36 47.36-47.36 15.309 0 28.921 7.264 37.579 18.532l0.083 0.112 313.6 311.552c4.976 4.668 11.689 7.535 19.072 7.535s14.096-2.867 19.087-7.549l-0.015 0.014 313.856-311.552c8.729-9.995 21.496-16.274 35.73-16.274 26.156 0 47.36 21.204 47.36 47.36 0 14.233-6.279 27-16.218 35.682l-0.056 0.048zM528.384 640.768c-4.207 4.163-9.995 6.735-16.384 6.735s-12.177-2.572-16.386-6.737l-274.942-274.686c-4.228-4.184-6.862-9.971-6.912-16.374v-200.458c0-47.081 38.167-85.248 85.248-85.248v0h136.192v210.688h153.6v-210.688h136.192c47.081 0 85.248 38.167 85.248 85.248v0 200.448c-0.050 6.413-2.684 12.2-6.91 16.382l-0.002 0.002z" />
<glyph unicode="&#xe90b;" glyph-name="left-arrow" d="M504.064 98.304c12.251 12.156 19.835 29 19.835 47.616s-7.584 35.46-19.83 47.612l-186.884 186.884h551.68c37.326 0 67.584 30.258 67.584 67.584s-30.258 67.584-67.584 67.584v0h-551.424l186.88 186.88c14.338 12.417 23.354 30.647 23.354 50.984 0 37.184-30.144 67.328-67.328 67.328-20.209 0-38.338-8.904-50.679-23.002l-0.067-0.078-302.336-301.824c-12.082-12.281-19.541-29.141-19.541-47.744s7.459-35.463 19.55-47.753l302.327-302.071c12.156-12.251 29-19.835 47.616-19.835s35.46 7.584 47.612 19.83l0.004 0.004z" />
<glyph unicode="&#xe90c;" glyph-name="menu" d="M801.024 771.84h-578.048c-38.315 0-69.376-31.061-69.376-69.376s31.061-69.376 69.376-69.376v0h578.048c38.315 0 69.376 31.061 69.376 69.376s-31.061 69.376-69.376 69.376v0zM801.024 517.376h-578.048c-38.315 0-69.376-31.061-69.376-69.376s31.061-69.376 69.376-69.376h578.048c38.315 0 69.376 31.061 69.376 69.376s-31.061 69.376-69.376 69.376v0zM801.024 262.912h-578.048c-38.315 0-69.376-31.061-69.376-69.376s31.061-69.376 69.376-69.376h578.048c38.315 0 69.376 31.061 69.376 69.376s-31.061 69.376-69.376 69.376v0z" />
<glyph unicode="&#xe90d;" glyph-name="notification" d="M420.864 155.648v0c-0.082-1.442-0.128-3.13-0.128-4.829 0-50.333 40.803-91.136 91.136-91.136s91.136 40.803 91.136 91.136c0 1.699-0.046 3.386-0.138 5.062l0.010-0.233zM802.816 268.8l-81.92 120.32v151.040c-0.020 100.858-71.514 185.011-166.587 204.568l-1.349 0.232v46.080c0 22.622-18.338 40.96-40.96 40.96s-40.96-18.338-40.96-40.96v0-46.336c-96.421-19.788-167.915-103.942-167.936-204.798v-150.274l-81.92-120.832c-4.171-6.361-6.652-14.155-6.652-22.528 0-22.903 18.566-41.47 41.468-41.472h512c22.903 0.002 41.468 18.569 41.468 41.472 0 8.373-2.482 16.167-6.749 22.686l0.097-0.158z" />
<glyph unicode="&#xe90e;" glyph-name="play" d="M467.968 527.104v-157.952l124.16 78.848zM512 12.8c-240.354 0-435.2 194.846-435.2 435.2s194.846 435.2 435.2 435.2c240.354 0 435.2-194.846 435.2-435.2v0c0-240.354-194.846-435.2-435.2-435.2v0zM512 840.96c-217.026 0-392.96-175.934-392.96-392.96s175.934-392.96 392.96-392.96c217.026 0 392.96 175.934 392.96 392.96v0c-0.146 216.967-175.993 392.814-392.946 392.96h-0.014z" />
<glyph unicode="&#xe90f;" glyph-name="quote" d="M734.72 373.76c-95.718 0-173.312 77.594-173.312 173.312s77.594 173.312 173.312 173.312c95.718 0 173.312-77.594 173.312-173.312v0-25.6c-0.432-190.529-154.406-344.952-344.722-346.111l-0.11-0.001v99.072c0.192-0.001 0.419-0.001 0.647-0.001 68.164 0 129.86 27.693 174.451 72.442l0.007 0.007c9.12 8.768 17.507 18.129 25.164 28.082l0.436 0.59c-8.004-1.304-17.229-2.049-26.629-2.049-0.178 0-0.357 0-0.535 0.001h0.027zM288.768 373.76c-0.38-0.003-0.83-0.005-1.28-0.005-95.718 0-173.312 77.594-173.312 173.312s77.594 173.312 173.312 173.312c95.716 0 173.309-77.592 173.312-173.307v0-25.6c-0.432-190.529-154.406-344.952-344.722-346.111l-0.11-0.001v99.072c0.192-0.001 0.419-0.001 0.647-0.001 68.164 0 129.86 27.693 174.451 72.442l0.007 0.007c9.119 8.769 17.506 18.13 25.164 28.082l0.436 0.59c-8.004-1.304-17.229-2.049-26.629-2.049-0.178 0-0.357 0-0.535 0.001h0.027z" />
<glyph unicode="&#xe910;" glyph-name="right-arrow" d="M519.936 797.696c-12.251-12.156-19.835-29-19.835-47.616s7.584-35.46 19.83-47.612l186.884-186.884h-551.68c-37.326 0-67.584-30.258-67.584-67.584s30.258-67.584 67.584-67.584v0h551.424l-186.88-186.88c-14.338-12.417-23.354-30.647-23.354-50.984 0-37.184 30.144-67.328 67.328-67.328 20.209 0 38.338 8.904 50.679 23.002l0.067 0.078 302.336 301.824c12.082 12.281 19.541 29.141 19.541 47.744s-7.459 35.463-19.55 47.753l-302.327 302.071c-12.156 12.251-29 19.835-47.616 19.835s-35.46-7.584-47.612-19.83l-0.004-0.004z" />
<glyph unicode="&#xe911;" glyph-name="search" d="M640 744.192c-54.414 54.548-129.659 88.296-212.785 88.296-165.986 0-300.544-134.558-300.544-300.544s134.558-300.544 300.544-300.544c64.2 0 123.699 20.13 172.529 54.422l-0.96-0.639c2.67-12.588 8.724-23.477 17.158-32.006l-0.006 0.006 170.496-170.752c11.498-11.498 27.383-18.61 44.928-18.61 35.091 0 63.538 28.447 63.538 63.538 0 17.545-7.112 33.43-18.61 44.928v0l-169.472 170.752c-8.436 8.424-19.24 14.479-31.329 17.077l-0.415 0.075c33.332 47.767 53.257 107.041 53.257 170.969 0 83.21-33.758 158.535-88.326 213.027l-0.003 0.003zM585.984 372.992c-40.568-40.495-96.572-65.536-158.426-65.536-123.853 0-224.256 100.403-224.256 224.256s100.403 224.256 224.256 224.256c61.854 0 117.858-25.042 158.429-65.539l-0.003 0.003c40.547-40.653 65.618-96.759 65.618-158.72s-25.071-118.066-65.623-158.725l0.005 0.005z" />
<glyph unicode="&#xe912;" glyph-name="chevron-up" d="M562.598 756.284l441.525-500.375c12.929-15.518 20.778-35.665 20.778-57.645s-7.849-42.127-20.896-57.791l0.118 0.146c-12.239-14.612-30.491-23.838-50.899-23.838s-38.66 9.226-50.815 23.734l-0.084 0.103-390.325 442.729-390.325-442.729c-12.109-14.632-30.273-23.885-50.598-23.885s-38.489 9.252-50.51 23.775l-0.088 0.11c-13.188 15.408-21.213 35.574-21.213 57.615s8.026 42.208 21.315 57.736l-0.101-0.121 440.922 500.375c12.221 14.52 30.297 23.774 50.543 24.093l0.054 0.001c20.325-0.147 38.453-9.423 50.51-23.926l0.087-0.108z" />
<glyph unicode="&#xe913;" glyph-name="tag" d="M708.096 733.952c-50.333 0-91.136-40.803-91.136-91.136s40.803-91.136 91.136-91.136c50.333 0 91.136 40.803 91.136 91.136v0c-0.145 50.275-40.862 90.991-91.122 91.136h-0.014zM708.096 588.032c-30.256 0-54.784 24.528-54.784 54.784s24.528 54.784 54.784 54.784c30.256 0 54.784-24.528 54.784-54.784v0c0-30.256-24.528-54.784-54.784-54.784v0zM817.664 842.496h-246.272c-0.646 0.017-1.407 0.027-2.17 0.027-24.068 0-45.848-9.798-61.569-25.622l-0.005-0.005-365.824-364.8c-16.29-16.42-26.357-39.034-26.357-64s10.067-47.58 26.363-64.006l-0.006 0.006 244.48-243.456c16.664-16.381 39.535-26.493 64.768-26.493s48.104 10.113 64.781 26.506l-0.013-0.013 365.568 365.056c16.784 15.82 27.27 38.162 27.392 62.954v242.454c0 0 0 0 0 0 0 50.384-40.772 91.246-91.122 91.392h-0.014zM872.448 509.696c0.003-0.19 0.004-0.415 0.004-0.64 0-14.251-6.328-27.023-16.328-35.661l-0.060-0.051-366.848-367.872c-9.906-9.654-23.458-15.609-38.4-15.609s-28.494 5.954-38.412 15.62l0.012-0.011-244.992 243.712c-9.537 9.958-15.409 23.493-15.409 38.4s5.872 28.442 15.428 38.42l-0.019-0.020 365.568 364.544c9.741 9.804 23.232 15.873 38.14 15.873 0.091 0 0.183 0 0.274-0.001h246.258c30.256 0 54.784-24.528 54.784-54.784v0-242.688z" />
<glyph unicode="&#xe914;" glyph-name="text-resize" d="M567.040 819.2h-110.080l-266.496-742.4h128l55.040 173.056h274.176l57.6-173.056h128zM409.6 353.536l102.4 307.2 102.4-307.2z" />
<glyph unicode="&#xe915;" glyph-name="twitter" d="M928.768 706.56c-28.501-13.402-61.569-23.289-96.289-27.966l-1.759-0.194c35.408 21.432 62.022 54.354 74.918 93.508l0.346 1.212c-31.244-18.861-67.609-33.249-106.345-41.1l-2.199-0.372c-31.303 33.156-75.556 53.796-124.63 53.796-94.586 0-171.264-76.678-171.264-171.264 0-13.538 1.571-26.708 4.54-39.34l-0.23 1.16c-142.423 7.669-267.61 75.503-351.563 178.325l-0.693 0.875c-14.539-24.64-23.128-54.291-23.128-85.948 0-59.119 29.954-111.241 75.514-142.018l0.606-0.386c-28.358 1.079-54.664 8.92-77.647 21.945l0.847-0.441s0-1.536 0-2.048c0.082-82.467 58.438-151.28 136.104-167.486l1.112-0.194c-13.351-3.738-28.682-5.886-44.515-5.886-11.419 0-22.578 1.118-33.372 3.249l1.087-0.179c22.517-68.472 85.237-117.307 159.572-118.781l0.172-0.003c-57.984-45.701-132.091-73.301-212.645-73.301-14.286 0-28.37 0.868-42.201 2.555l1.662-0.165c73.956-48.159 164.457-76.8 261.647-76.8 0.175 0 0.349 0 0.524 0h-0.027c314.624 0 486.4 260.608 486.4 486.4q0 11.008 0 22.016c32.877 24.664 60.578 54.076 82.649 87.53l0.807 1.302z" />
<glyph unicode="&#xe916;" glyph-name="youtube" d="M849.408 661.248c-25.6 31.488-75.264 44.288-168.192 44.288h-338.176c-95.232 0-144.896-13.568-171.264-47.104s-25.6-80.64-25.6-147.2v-126.72c0-128 30.464-194.048 196.864-194.048h337.92c80.896 0 125.44 11.264 153.6 38.912s42.24 74.752 42.24 155.136v126.72c0 70.144-2.048 118.528-28.416 150.016zM615.936 430.848l-153.6-80.128c-3.19-1.721-6.982-2.732-11.010-2.732-12.888 0-23.358 10.352-23.549 23.194v160.018c0 0.051-0.001 0.111-0.001 0.171 0 13.007 10.545 23.552 23.552 23.552 4.027 0 7.819-1.011 11.134-2.793l-0.126 0.062 153.6-79.616c7.7-3.979 12.873-11.881 12.873-20.992s-5.173-17.013-12.742-20.93l-0.131-0.062z" />
<glyph unicode="&#xe917;" glyph-name="home" d="M910.592 484.864l-124.928 124.928v145.408c-1.868 24.615-22.3 43.88-47.232 43.88s-45.364-19.265-47.222-43.721l-0.010-0.16v-51.2l-93.184 93.44c-22.303 21.368-52.623 34.524-86.016 34.524s-63.713-13.155-86.061-34.566l0.045 0.042-312.576-312.576c-11.72-8.722-19.229-22.534-19.229-38.1 0-26.156 21.204-47.36 47.36-47.36 15.309 0 28.921 7.264 37.579 18.532l0.083 0.112 313.6 311.552c4.976 4.668 11.689 7.535 19.072 7.535s14.096-2.867 19.087-7.549l-0.015 0.014 313.856-311.552c8.729-9.995 21.496-16.274 35.73-16.274 26.156 0 47.36 21.204 47.36 47.36 0 14.233-6.279 27-16.218 35.682l-0.056 0.048zM528.384 640.768c-4.207 4.163-9.995 6.735-16.384 6.735s-12.177-2.572-16.386-6.737l-274.942-274.686c-4.228-4.184-6.862-9.971-6.912-16.374v-200.458c0-47.081 38.167-85.248 85.248-85.248v0h136.192v210.688h153.6v-210.688h136.192c47.081 0 85.248 38.167 85.248 85.248v0 200.448c-0.050 6.413-2.684 12.2-6.91 16.382l-0.002 0.002z" />
<glyph unicode="&#xe918;" glyph-name="filter" d="M700.416 380.672v134.656c-0.016 0.237-0.025 0.514-0.025 0.793 0 7.069 5.731 12.8 12.8 12.8 0.279 0 0.556-0.009 0.83-0.026l-0.037 0.002h54.016c0.237 0.016 0.514 0.025 0.793 0.025 7.069 0 12.8-5.731 12.8-12.8 0-0.279-0.009-0.556-0.026-0.83l0.002 0.037v-134.656c0.016-0.237 0.025-0.514 0.025-0.793 0-7.069-5.731-12.8-12.8-12.8-0.279 0-0.556 0.009-0.83 0.026l0.037-0.002h-53.76c-0.314-0.027-0.68-0.043-1.050-0.043-7.069 0-12.8 5.731-12.8 12.8 0 0.285 0.009 0.569 0.028 0.849l-0.002-0.038zM485.12 124.672h53.76c0.237-0.016 0.514-0.025 0.793-0.025 7.069 0 12.8 5.731 12.8 12.8 0 0.279-0.009 0.556-0.026 0.83l0.002-0.037v134.912c0.016 0.237 0.025 0.514 0.025 0.793 0 7.069-5.731 12.8-12.8 12.8-0.279 0-0.556-0.009-0.83-0.026l0.037 0.002h-53.76c-0.237 0.016-0.514 0.025-0.793 0.025-7.069 0-12.8-5.731-12.8-12.8 0-0.279 0.009-0.556 0.026-0.83l-0.002 0.037v-134.656c-0.007-0.16-0.011-0.347-0.011-0.536 0-7.069 5.731-12.8 12.8-12.8 0.274 0 0.546 0.009 0.816 0.026l-0.037-0.002zM256 609.536h53.76c0.237-0.016 0.514-0.025 0.793-0.025 7.069 0 12.8 5.731 12.8 12.8 0 0.279-0.009 0.556-0.026 0.83l0.002-0.037v134.4c0.016 0.237 0.025 0.514 0.025 0.793 0 7.069-5.731 12.8-12.8 12.8-0.279 0-0.556-0.009-0.83-0.026l0.037 0.002h-53.76c-0.237 0.016-0.514 0.025-0.793 0.025-7.069 0-12.8-5.731-12.8-12.8 0-0.279 0.009-0.556 0.026-0.83l-0.002 0.037v-134.656c-0.007-0.16-0.011-0.347-0.011-0.536 0-7.069 5.731-12.8 12.8-12.8 0.274 0 0.546 0.009 0.816 0.026l-0.037-0.002zM430.848 178.944v53.76h-308.992c-14.845 0-26.88-12.035-26.88-26.88s12.035-26.88 26.88-26.88v0zM592.384 232.704v-53.76h309.76c14.845 0 26.88 12.035 26.88 26.88s-12.035 26.88-26.88 26.88v0zM659.712 421.12v53.76h-537.6c-14.845 0-26.88-12.035-26.88-26.88s12.035-26.88 26.88-26.88v0zM821.248 474.88v-53.76h80.64c14.845 0 26.88 12.035 26.88 26.88s-12.035 26.88-26.88 26.88v0zM364.032 717.056v-53.76h537.6c14.845 0 26.88 12.035 26.88 26.88s-12.035 26.88-26.88 26.88v0zM202.496 663.296v53.76h-80.64c-14.845 0-26.88-12.035-26.88-26.88s12.035-26.88 26.88-26.88v0z" />
</font>
</defs>
</svg>
